HIERARCHY
ROOT Hips
{
    OFFSET   0.000000   0.000000   0.000000
    CHANNELS 6 Xposition Yposition Zposition Zrotation Xrotation Yrotation
    JOINT Chest
    {
        OFFSET   0.000000   8.007230   0.000000
        CHANNELS 3 Zrotation Xrotation Yrotation
        JOINT Chest2
        {
            OFFSET   0.000000  22.077100   0.000000
            CHANNELS 3 Zrotation Xrotation Yrotation
            JOINT Neck
            {
                OFFSET   0.000000  23.254700   0.000000
                CHANNELS 3 Zrotation Xrotation Yrotation
                JOINT Head
                {
                    OFFSET   0.000010  14.370000   1.956610
                    CHANNELS 3 Zrotation Xrotation Yrotation
                    End Site
                    {
                        OFFSET   0.000000  19.566000   0.000000
                    }
                }
            }
            JOINT LeftCollar
            {
                OFFSET   3.911900  19.017000  -0.467063
                CHANNELS 3 Zrotation Xrotation Yrotation
                JOINT LeftShoulder
                {
                    OFFSET  10.383700   0.000000   0.000000
                    CHANNELS 3 Zrotation Xrotation Yrotation
                    JOINT LeftElbow
                    {
                        OFFSET  26.662100   0.001671   0.000522
                        CHANNELS 3 Zrotation Xrotation Yrotation
                        JOINT LeftWrist
                        {
                            OFFSET  28.869000   0.000037  -0.000114
                            CHANNELS 3 Zrotation Xrotation Yrotation
                            JOINT LeftFinger0
                            {
                                OFFSET   2.044650  -2.323450   3.252850
                                CHANNELS 3 Zrotation Xrotation Yrotation
                                JOINT LeftFinger01
                                {
                                    OFFSET   3.088140   0.000000   0.000000
                                    CHANNELS 3 Zrotation Xrotation Yrotation
                                    JOINT LeftFinger02
                                    {
                                        OFFSET   2.639460   0.000000   0.000000
                                        CHANNELS 3 Zrotation Xrotation Yrotation
                                        End Site
                                        {
                                            OFFSET   2.582190   0.000000   0.000000
                                        }
                                    }
                                }
                            }
                            JOINT LeftFinger1
                            {
                                OFFSET   8.364480   0.000000   3.252850
                                CHANNELS 3 Zrotation Xrotation Yrotation
                                JOINT LeftFinger11
                                {
                                    OFFSET   4.646930   0.000000   0.000000
                                    CHANNELS 3 Zrotation Xrotation Yrotation
                                    JOINT LeftFinger12
                                    {
                                        OFFSET   2.323470   0.000000   0.000000
                                        CHANNELS 3 Zrotation Xrotation Yrotation
                                        End Site
                                        {
                                            OFFSET   2.273050   0.000000   0.000000
                                        }
                                    }
                                }
                            }
                            JOINT LeftFinger2
                            {
                                OFFSET   8.364490   0.000016   1.078090
                                CHANNELS 3 Zrotation Xrotation Yrotation
                                JOINT LeftFinger21
                                {
                                    OFFSET   5.111620   0.000000   0.000000
                                    CHANNELS 3 Zrotation Xrotation Yrotation
                                    JOINT LeftFinger22
                                    {
                                        OFFSET   2.788150   0.000013   0.000000
                                        CHANNELS 3 Zrotation Xrotation Yrotation
                                        End Site
                                        {
                                            OFFSET   2.727660   0.000000   0.000000
                                        }
                                    }
                                }
                            }
                            JOINT LeftFinger3
                            {
                                OFFSET   7.899780   0.000016  -1.078090
                                CHANNELS 3 Zrotation Xrotation Yrotation
                                JOINT LeftFinger31
                                {
                                    OFFSET   4.646930   0.000000   0.000000
                                    CHANNELS 3 Zrotation Xrotation Yrotation
                                    JOINT LeftFinger32
                                    {
                                        OFFSET   2.323470   0.000000   0.000000
                                        CHANNELS 3 Zrotation Xrotation Yrotation
                                        End Site
                                        {
                                            OFFSET   2.273050   0.000000   0.000000
                                        }
                                    }
                                }
                            }
                            JOINT LeftFinger4
                            {
                                OFFSET   7.435080   0.000000  -3.252850
                                CHANNELS 3 Zrotation Xrotation Yrotation
                                JOINT LeftFinger41
                                {
                                    OFFSET   3.717550   0.000000   0.000000
                                    CHANNELS 3 Zrotation Xrotation Yrotation
                                    JOINT LeftFinger42
                                    {
                                        OFFSET   1.858760   0.000000   0.000000
                                        CHANNELS 3 Zrotation Xrotation Yrotation
                                        End Site
                                        {
                                            OFFSET   1.818440   0.000000   0.000000
                                        }
                                    }
                                }
                            }
                        }
                    }
                }
            }
            JOINT RightCollar
            {
                OFFSET  -3.911900  19.017000  -0.467064
                CHANNELS 3 Zrotation Xrotation Yrotation
                JOINT RightShoulder
                {
                    OFFSET -10.383700   0.000000   0.000000
                    CHANNELS 3 Zrotation Xrotation Yrotation
                    JOINT RightElbow
                    {
                        OFFSET -26.662100   0.001633   0.000260
                        CHANNELS 3 Zrotation Xrotation Yrotation
                        JOINT RightWrist
                        {
                            OFFSET -28.869000  -0.000045  -0.000080
                            CHANNELS 3 Zrotation Xrotation Yrotation
                            JOINT RightFinger0
                            {
                                OFFSET  -2.044660  -2.323490   3.252850
                                CHANNELS 3 Zrotation Xrotation Yrotation
                                JOINT RightFinger01
                                {
                                    OFFSET  -3.088140   0.000000   0.000000
                                    CHANNELS 3 Zrotation Xrotation Yrotation
                                    JOINT RightFinger02
                                    {
                                        OFFSET  -2.639450   0.000000   0.000000
                                        CHANNELS 3 Zrotation Xrotation Yrotation
                                        End Site
                                        {
                                            OFFSET  -2.582190   0.000000   0.000000
                                        }
                                    }
                                }
                            }
                            JOINT RightFinger1
                            {
                                OFFSET  -8.364480   0.000000   3.252850
                                CHANNELS 3 Zrotation Xrotation Yrotation
                                JOINT RightFinger11
                                {
                                    OFFSET  -4.646920   0.000000   0.000000
                                    CHANNELS 3 Zrotation Xrotation Yrotation
                                    JOINT RightFinger12
                                    {
                                        OFFSET  -2.323470   0.000000   0.000000
                                        CHANNELS 3 Zrotation Xrotation Yrotation
                                        End Site
                                        {
                                            OFFSET  -2.273050   0.000000   0.000000
                                        }
                                    }
                                }
                            }
                            JOINT RightFinger2
                            {
                                OFFSET  -8.364480   0.000000   1.078090
                                CHANNELS 3 Zrotation Xrotation Yrotation
                                JOINT RightFinger21
                                {
                                    OFFSET  -5.111610   0.000000   0.000000
                                    CHANNELS 3 Zrotation Xrotation Yrotation
                                    JOINT RightFinger22
                                    {
                                        OFFSET  -2.788160   0.000000   0.000000
                                        CHANNELS 3 Zrotation Xrotation Yrotation
                                        End Site
                                        {
                                            OFFSET  -2.727660   0.000000   0.000000
                                        }
                                    }
                                }
                            }
                            JOINT RightFinger3
                            {
                                OFFSET  -7.899780   0.000000  -1.078090
                                CHANNELS 3 Zrotation Xrotation Yrotation
                                JOINT RightFinger31
                                {
                                    OFFSET  -4.646930   0.000000   0.000000
                                    CHANNELS 3 Zrotation Xrotation Yrotation
                                    JOINT RightFinger32
                                    {
                                        OFFSET  -2.323470   0.000000   0.000000
                                        CHANNELS 3 Zrotation Xrotation Yrotation
                                        End Site
                                        {
                                            OFFSET  -2.273050   0.000000   0.000000
                                        }
                                    }
                                }
                            }
                            JOINT RightFinger4
                            {
                                OFFSET  -7.435090   0.000000  -3.252850
                                CHANNELS 3 Zrotation Xrotation Yrotation
                                JOINT RightFinger41
                                {
                                    OFFSET  -3.717550   0.000000   0.000000
                                    CHANNELS 3 Zrotation Xrotation Yrotation
                                    JOINT RightFinger42
                                    {
                                        OFFSET  -1.858760   0.000000   0.000000
                                        CHANNELS 3 Zrotation Xrotation Yrotation
                                        End Site
                                        {
                                            OFFSET  -1.818440   0.000000   0.000000
                                        }
                                    }
                                }
                            }
                        }
                    }
                }
            }
        }
    }
    JOINT LeftHip
    {
        OFFSET   9.782990   0.000000   0.000000
        CHANNELS 3 Zrotation Xrotation Yrotation
        JOINT LeftKnee
        {
            OFFSET  -0.000063 -41.789100   0.001657
            CHANNELS 3 Zrotation Xrotation Yrotation
            JOINT LeftAnkle
            {
                OFFSET   0.000078 -41.133200  -0.000113
                CHANNELS 3 Zrotation Xrotation Yrotation
                JOINT LeftToe
                {
                    OFFSET   0.000000  -6.358970  14.674500
                    CHANNELS 3 Zrotation Xrotation Yrotation
                    End Site
                    {
                        OFFSET   0.000000   0.000000   3.913200
                    }
                }
            }
        }
    }
    JOINT RightHip
    {
        OFFSET  -9.782990   0.000000   0.000000
        CHANNELS 3 Zrotation Xrotation Yrotation
        JOINT RightKnee
        {
            OFFSET   0.000053 -41.789200   0.000277
            CHANNELS 3 Zrotation Xrotation Yrotation
            JOINT RightAnkle
            {
                OFFSET   0.000030 -41.133200  -0.000150
                CHANNELS 3 Zrotation Xrotation Yrotation
                JOINT RightToe
                {
                    OFFSET   0.000000  -6.358960  14.674500
                    CHANNELS 3 Zrotation Xrotation Yrotation
                    End Site
                    {
                        OFFSET   0.000000   0.000000   3.913200
                    }
                }
            }
        }
    }
}
MOTION
Frames: 6
Frame Time:   0.016667
  1.043780  89.508500  -1.181700  -1.452670  -5.679190  -1.370570   0.623401   3.069730  -0.281200   1.264630   6.136190  -0.597173   0.111719   0.353153   0.000676   0.183204   0.716107   8.775310  -7.933480   4.140010  -0.290023 -71.460000  17.485100 -10.961500  -0.788857   0.166686  -9.689780   5.759760  -9.181530   3.076120  42.229100  28.947000 -57.056200 -23.741100   0.003686   0.001694  -6.869960  -0.000617   0.000120 -34.847800   1.634100  -2.345010 -28.539700  -0.002325   0.001170 -19.976600  -0.000044   0.002130 -28.201100  -0.681161   1.272350 -33.491600   0.001221  -0.000180 -22.305500   0.001222   0.002359 -28.257200  -1.384740   2.573910 -34.152700  -0.000032  -0.001359 -22.745800  -0.002311  -0.000976 -33.231400  -1.726610   2.631500 -49.906600   0.002352  -0.000978 -33.237700   0.000212  -0.004073   1.332740  -3.700230   4.531640  32.254700 -22.224300  45.102900 -27.111200 -33.729200  88.755400  25.800200 -17.518000  41.036200 -50.060700  35.328100  71.340200   9.066370   0.003228  -0.003837  -0.466810  -0.010407   0.003345   0.054698   0.014257  14.084500   0.024239  -0.002885  -0.006330   0.016970  -0.001999   0.001549   0.845572   0.194402  12.963200   0.867644  -0.003155  -0.000474   0.577856  -0.001757  -0.004577   4.160980   0.908204  12.289500   4.258740   0.001478  -0.003795   2.836330   0.005413  -0.003803   7.214600   1.520120  11.832300  11.058300   0.000514   0.000417   7.364840   0.002367   0.000669   1.966480   9.009140  -1.887120   0.467856   0.118169  10.406800  -2.992470  -3.928060   5.514490  -0.000000   0.000000   0.000000   0.223707   7.021670  -1.153840   0.186648   2.665290  -7.196440  -1.463700  -4.209000   3.308050   0.000000   0.000000   0.000000
  1.038400  89.509100  -1.178490  -1.447500  -5.667670  -1.363920   0.623330   3.066820  -0.281208   1.264470   6.130350  -0.597153   0.102680   0.347347   0.000586   0.168769   0.704549   8.788990  -7.941560   4.144970  -0.295290 -71.471000  17.476400 -10.955300  -0.796443   0.171213  -9.690440   5.753190  -9.168640   3.076250  42.237600  28.954300 -57.065000 -23.733600   0.003677   0.001682  -6.866820  -0.000617   0.000122 -34.839700   1.633110  -2.343700 -28.532500  -0.002373   0.001268 -19.972800  -0.000112   0.002250 -28.201400  -0.678301   1.269560 -33.475400   0.001227  -0.000211 -22.294600   0.001243   0.002373 -28.256300  -1.386810   2.578000 -34.125800  -0.000085  -0.001372 -22.727800  -0.002488  -0.000994 -33.216600  -1.730200   2.636980 -49.884700   0.002286  -0.000908 -33.223200   0.000185  -0.004032   1.337580  -3.696260   4.538860  32.274600 -22.238900  45.127300 -27.093500 -33.736200  88.739600  25.644100 -17.625900  40.873600 -50.049100  35.329200  71.347000   9.086310   0.003351  -0.003882  -0.456845  -0.010358   0.003447   0.015610   0.004377  14.091500   0.020077  -0.002941  -0.006152   0.014056  -0.002025   0.001464   0.928865   0.217665  13.170700   0.953873  -0.003210  -0.000423   0.635282  -0.001804  -0.004437   4.229580   0.926072  12.324500   4.329510   0.001398  -0.003792   2.883460   0.005384  -0.003777   7.302050   1.533380  11.793400  11.190800   0.000505   0.000411   7.453090   0.002286   0.000647   1.970290   9.016210  -1.892990   0.468281   0.086311  10.404500  -2.997240  -3.916020   5.514160   0.000000   0.000000   0.000000   0.223196   7.204960  -1.156410   0.195852   2.464110  -7.201100  -1.468350  -4.209080   3.308480   0.000000   0.000000   0.000000
  1.032020  89.509800  -1.175170  -1.442770  -5.654930  -1.358200   0.623253   3.064590  -0.280999   1.264300   6.125890  -0.596692   0.093386   0.341081   0.000485   0.153374   0.691647   8.809860  -7.948690   4.147630  -0.297517 -71.479900  17.483100 -10.948300  -0.802413   0.165545  -9.689410   5.758960  -9.153270   3.076070  42.245200  28.957100 -57.068900 -23.724300   0.003681   0.001677  -6.862230  -0.000617   0.000126 -34.831800   1.634990  -2.347330 -28.526100  -0.002421   0.001362 -19.968400  -0.000157   0.002330 -28.199900  -0.675987   1.263200 -33.464900   0.001225  -0.000242 -22.287600   0.001262   0.002391 -28.256000  -1.385410   2.575570 -34.109300  -0.000125  -0.001383 -22.716800  -0.002675  -0.001016 -33.214500  -1.729430   2.635380 -49.881400   0.002220  -0.000840 -33.221200   0.000156  -0.003990   1.338410  -3.692040   4.547900  32.257200 -22.256100  45.134200 -27.085900 -33.752200  88.745400  25.534500 -17.835000  40.654400 -50.059700  35.389800  71.476200   9.039020   0.003448  -0.003923  -0.480489  -0.010293   0.003548   0.076083   0.019168  14.138100   0.068019  -0.002988  -0.005977   0.047620  -0.002057   0.001380   1.018760   0.241217  13.312400   1.046790  -0.003279  -0.000376   0.697169  -0.001852  -0.004295   4.365010   0.962345  12.405700   4.469530   0.001319  -0.003790   2.976710   0.005349  -0.003750   7.481120   1.560730  11.713900  11.462100   0.000479   0.000404   7.633760   0.002196   0.000624   1.977540   9.039410  -1.901910   0.469817   0.012364  10.407400  -2.998910  -3.882680   5.514020   0.000000   0.000000   0.000000   0.220692   7.372910  -1.158340   0.208455   2.273800  -7.205190  -1.473680  -4.208450   3.308990  -0.000000   0.000000  -0.000000
  1.024900  89.510500  -1.171530  -1.438330  -5.640220  -1.352080   0.623165   3.061860  -0.280789   1.264090   6.120430  -0.596241   0.084712   0.335459   0.000382   0.139192   0.680042   8.832060  -7.955510   4.150210  -0.298536 -71.487600  17.493500 -10.941600  -0.808223   0.157248  -9.686460   5.770280  -9.138450   3.075600  42.251900  28.957800 -57.070200 -23.713700   0.003686   0.001675  -6.856870  -0.000616   0.000128 -34.822600   1.639760  -2.355670 -28.518800  -0.002471   0.001455 -19.963200  -0.000199   0.002362 -28.197300  -0.672569   1.254170 -33.454400   0.001221  -0.000271 -22.280600   0.001279   0.002411 -28.256000  -1.382220   2.569900 -34.096200  -0.000167  -0.001388 -22.708000  -0.002863  -0.001037 -33.213900  -1.726840   2.631490 -49.880200   0.002152  -0.000773 -33.220500   0.000118  -0.003945   1.338580  -3.687570   4.554620  32.221200 -22.266100  45.137100 -27.085300 -33.773100  88.759300  25.506800 -18.054000  40.459500 -50.051700  35.470300  71.651800   8.991740   0.003537  -0.003963  -0.504133  -0.010227   0.003648   0.202381   0.050711  14.207600   0.170676  -0.003029  -0.005801   0.119482  -0.002090   0.001294   1.103220   0.262952  13.414000   1.134050  -0.003349  -0.000330   0.755293  -0.001899  -0.004152   4.500140   0.998481  12.485200   4.609320   0.001243  -0.003788   3.069810   0.005314  -0.003724   7.648620   1.585290  11.639700  11.715400   0.000456   0.000396   7.802440   0.002103   0.000601   1.984160   9.056550  -1.907880   0.470869  -0.039886  10.410300  -2.999660  -3.858810   5.513940  -0.000000   0.000000   0.000000   0.218897   7.470620  -1.160180   0.216786   2.161770  -7.210050  -1.479540  -4.206100   3.309560   0.000000   0.000000   0.000000
  1.017090  89.511300  -1.167520  -1.434550  -5.621820  -1.343830   0.623069   3.057060  -0.281419   1.263900   6.110830  -0.597442   0.079214   0.331050   0.000287   0.130928   0.671263   8.851650  -7.962730   4.155810  -0.299009 -71.493200  17.501900 -10.936800  -0.815703   0.152404  -9.680310   5.781430  -9.127520   3.073830  42.257500  28.954500 -57.068000 -23.701700   0.003687   0.001682  -6.850880  -0.000610   0.000120 -34.810300   1.647790  -2.368340 -28.509000  -0.002523   0.001553 -19.956400  -0.000242   0.002365 -28.194900  -0.666547   1.242730 -33.439600   0.001218  -0.000296 -22.270800   0.001294   0.002430 -28.256100  -1.377710   2.561710 -34.081700  -0.000214  -0.001388 -22.698400  -0.003053  -0.001056 -33.212400  -1.721980   2.626050 -49.877800   0.002082  -0.000701 -33.218700   0.000047  -0.003896   1.338270  -3.682700   4.555660  32.175700 -22.256800  45.126600 -27.125100 -33.803800  88.780500  25.578100 -18.186000  40.401700 -49.955700  35.476900  71.743000   8.999040   0.003630  -0.004003  -0.500477  -0.010172   0.003748   0.364217   0.092320  14.266500   0.306932  -0.003065  -0.005621   0.214851  -0.002122   0.001205   1.154080   0.275587  13.438400   1.186470  -0.003408  -0.000283   0.790194  -0.001943  -0.004011   4.557910   1.013470  12.513100   4.669030   0.001169  -0.003784   3.109570   0.005287  -0.003700   7.702660   1.592180  11.615900  11.796800   0.000451   0.000386   7.856630   0.002009   0.000576   1.985970   9.039670  -1.907470   0.470597  -0.027597  10.404700  -3.006260  -3.866280   5.513500  -0.000000   0.000000  -0.000000   0.214940   7.144770  -1.162190   0.220657   2.462760  -7.217810  -1.485950  -4.200830   3.310050   0.000000   0.000000   0.000000
  1.008660  89.511900  -1.162900  -1.430320  -5.601960  -1.334280   0.623007   3.051600  -0.282049   1.263770   6.099920  -0.598641   0.075594   0.328942   0.000194   0.125756   0.667157   8.862100  -7.969050   4.159590  -0.299970 -71.498600  17.506700 -10.931100  -0.822762   0.150187  -9.675100   5.793930  -9.118630   3.069420  42.261500  28.950100 -57.064800 -23.690200   0.003688   0.001689  -6.845120  -0.000603   0.000112 -34.798800   1.656180  -2.381350 -28.499900  -0.002577   0.001652 -19.949900  -0.000286   0.002365 -28.192900  -0.659285   1.229600 -33.423400   0.001212  -0.000319 -22.260000   0.001306   0.002451 -28.256400  -1.372470   2.552110 -34.070100  -0.000265  -0.001386 -22.690600  -0.003242  -0.001073 -33.210200  -1.715690   2.618600 -49.874200   0.002009  -0.000627 -33.216200   0.000000  -0.003842   1.337910  -3.677960   4.555950  32.138300 -22.247300  45.117100 -27.180400 -33.831700  88.802200  25.652300 -18.273200  40.411800 -49.882100  35.476800  71.815900   9.006350   0.003724  -0.004041  -0.496822  -0.010120   0.003846   0.542219   0.138395  14.322200   0.457794  -0.003098  -0.005441   0.320445  -0.002152   0.001115   1.188640   0.284789  13.463100   1.222150  -0.003462  -0.000237   0.813948  -0.001986  -0.003870   4.590190   1.021260  12.517100   4.702190   0.001097  -0.003781   3.131650   0.005261  -0.003676   7.710380   1.593170  11.612500  11.808400   0.000448   0.000376   7.864370   0.001918   0.000551   1.986290   9.008220  -1.906710   0.470092  -0.002161  10.397000  -3.019560  -3.879470   5.510210  -0.000000   0.000000  -0.000000   0.210966   6.818930  -1.164300   0.224677   2.763730  -7.227140  -1.492590  -4.195310   3.310690  -0.000000   0.000000   0.000000
